<?xml version="1.0" encoding="UTF-8"?>
<svg width="512px" height="512px" viewBox="0 0 512 512" version="1.1" xmlns="http://www.w3.org/2000/svg" xmlns:xlink="http://www.w3.org/1999/xlink">
    <!-- Generator: Sketch 51.2 (57519) - http://www.bohemiancoding.com/sketch -->
    <title>Artboard 3</title>
    <desc>Created with Sketch.</desc>
    <defs></defs>
    <g id="Artboard-3" stroke="none" stroke-width="1" fill="none" fill-rule="evenodd">
        <rect id="Rectangle-4" fill="#000000" x="256" y="0" width="1" height="512"></rect>
        <rect id="Rectangle-4" fill="#000000" transform="translate(257.000000, 256.397749) rotate(90.000000) translate(-257.000000, -256.397749) " x="256.5" y="0.39774898" width="1" height="512"></rect>
        <rect id="Rectangle-4" fill="#000000" transform="translate(256.372889, 256.270638) rotate(45.000000) translate(-256.372889, -256.270638) " x="255.872889" y="0.270638355" width="1" height="512"></rect>
        <rect id="Rectangle-4" fill="#000000" transform="translate(256.372889, 256.270638) rotate(135.000000) translate(-256.372889, -256.270638) " x="255.872889" y="0.270638355" width="1" height="512"></rect>
        <rect id="Rectangle-4" fill="#000000" transform="translate(256.428898, 255.602251) rotate(22.500000) translate(-256.428898, -255.602251) " x="255.928898" y="-0.39774898" width="1" height="512"></rect>
        <rect id="Rectangle-4" fill="#000000" transform="translate(256.704502, 256.326647) rotate(112.500000) translate(-256.704502, -256.326647) " x="256.204502" y="0.326647432" width="1" height="512"></rect>
        <rect id="Rectangle-4" fill="#000000" transform="translate(256.704502, 256.326647) rotate(67.500000) translate(-256.704502, -256.326647) " x="256.204502" y="0.326647432" width="1" height="512"></rect>
        <rect id="Rectangle-4" fill="#000000" transform="translate(256.428898, 255.602251) rotate(157.500000) translate(-256.428898, -255.602251) " x="255.928898" y="-0.39774898" width="1" height="512"></rect>
    </g>
</svg>