<svg height="65" viewBox="0 0 68 65" width="68" xmlns="http://www.w3.org/2000/svg"><path d="m18.3019132 2.03765919c-7.7169423 8.63994841-28.9875548 24.86766491-8.91723758 32.27431251 10.36166398 3.8238156 18.31719328-16.2239081 10.95294458-12.6169617-1.0617715.5200466-.9566289 2.1873768-1.1351677 3.3537902-.7005182 4.5765616-1.2521219 9.1854275-1.4918572 13.8088493-.3982896 7.6812249-4.0524903 16.285951-.4204325 23.0706677 2.102727 3.9279132 8.8841734 1.0603908 13.3480536 1.0782456 8.5217552.0340858 17.085049.0686219 25.5487333-.9226643 1.5095097-.1767973 1.7078372-2.8366254.8042467-7.5544836-1.739288-9.0812307-3.6088298-18.151571-6.0230345-27.0778992-.6253981-2.312359-1.5097318-4.6755035-3.0596636-6.5046485-.5276394-.6226913-1.7086702-.3389066-2.4520708 0-6.5356721 2.9795268 10.7344403 12.1008958 11.7056544 11.1193232 3.7380041-3.7778723 6.1787769-8.6797985 8.6771842-13.3664574.6746216-1.2654948 1.7912401-3.2981186.7093103-4.2412798-4.2612094-3.7146653-9.795888-5.67811512-14.8955164-8.12539905-2.9256098-1.4039842-5.9267232-2.83553262-9.1233852-3.40114108-6.927401-1.22571503-14.011704-1.28794205-21.017556-1.93191307z" fill="none" stroke="#000"/></svg>