<svg height="65" viewBox="0 0 68 65" width="68" xmlns="http://www.w3.org/2000/svg"><path d="m20.4105493 2.99007398c-3.2504267 4-21.06928004 54.95945152-18.07235596 57.84556422 1.83115486 1.7634478 4.85693404 2.191754 7.49176568 2.4381245 5.19257938.4855332 10.78800198 1.4637483 15.65487908-.2737928 6.6876656-2.3875872 13.3281463-24.5451447 12.1748619-26.5921213-.1720391-.305354-.7230268-.3750499-1.0798005-.2737927-11.7170955 3.3254696 1.9288426 21.4119842 3.9612488 24.3757689.9637448 1.4053943 3.1195408 1.9149982 4.913315 2.0904077 4.3405351.424452 8.7730313.2658789 13.089796-.3299203 2.1439979-.2959142 4.7162584-.6975859 6.0035125-2.305335 4.4561537-5.5656276 1.8476416-11.2235341-.0829015-15.153361-9.4022504-19.1392859-4.4623862-41.78164009-12.6434274-41.78164009-18.7736445-2.69326809-29.2439424-2.7065688-31.4108936-.03990213z" fill="none" stroke="#000"/></svg>