<?xml version="1.0" encoding="UTF-8"?>
<svg width="28px" height="28px" viewBox="0 0 28 28" version="1.1" xmlns="http://www.w3.org/2000/svg" xmlns:xlink="http://www.w3.org/1999/xlink">
    <!-- Generator: Sketch 46.2 (44496) - http://www.bohemiancoding.com/sketch -->
    <title>icon_info</title>
    <desc>Created with Sketch.</desc>
    <defs></defs>
    <g id="Page-1" stroke="none" stroke-width="1" fill="none" fill-rule="evenodd">
        <g id="icon_info" stroke="#000000" stroke-width="2">
            <path d="M-4.07363897,12.073639 L-1.60005389,14.6699174 L-1.60083852,14.6706649 C-0.8389148,15.4703811 0.427044498,15.501018 1.22676071,14.7390943 C1.22702233,14.738845 1.22728388,14.7385957 1.22754536,14.7383463 L2.60834649,13.4198721 L2.60834649,13.4198721 C3.3935346,12.6709776 4.63265294,12.6847753 5.40097036,13.4509683 L6.67269166,14.7191732 L6.67269166,14.7191732 C7.44951571,15.4938492 8.7053912,15.49814 9.48749051,14.7287901 L10.752346,13.4845538 L10.752346,13.4845538 C11.5397864,12.7099498 12.8060736,12.7203558 13.5806776,13.5077963 C13.5834594,13.5106241 13.5862327,13.5134603 13.5889976,13.5163046 L16.1179317,16.1179317" id="Path-2" transform="translate(6.022146, 14.095785) scale(-1, 1) rotate(-90.000000) translate(-6.022146, -14.095785) "></path>
            <path d="M3.92636103,12.073639 L6.39994611,14.6699174 L6.39916148,14.6706649 C7.1610852,15.4703811 8.4270445,15.501018 9.22676071,14.7390943 C9.22702233,14.738845 9.22728388,14.7385957 9.22754536,14.7383463 L10.6083465,13.4198721 L10.6083465,13.4198721 C11.3935346,12.6709776 12.6326529,12.6847753 13.4009704,13.4509683 L14.6726917,14.7191732 L14.6726917,14.7191732 C15.4495157,15.4938492 16.7053912,15.49814 17.4874905,14.7287901 L18.752346,13.4845538 L18.752346,13.4845538 C19.5397864,12.7099498 20.8060736,12.7203558 21.5806776,13.5077963 C21.5834594,13.5106241 21.5862327,13.5134603 21.5889976,13.5163046 L24.1179317,16.1179317" id="Path-2-Copy" transform="translate(14.022146, 14.095785) scale(-1, 1) rotate(-90.000000) translate(-14.022146, -14.095785) "></path>
            <path d="M11.926361,12.073639 L14.3999461,14.6699174 L14.3991615,14.6706649 C15.1610852,15.4703811 16.4270445,15.501018 17.2267607,14.7390943 C17.2270223,14.738845 17.2272839,14.7385957 17.2275454,14.7383463 L18.6083465,13.4198721 L18.6083465,13.4198721 C19.3935346,12.6709776 20.6326529,12.6847753 21.4009704,13.4509683 L22.6726917,14.7191732 L22.6726917,14.7191732 C23.4495157,15.4938492 24.7053912,15.49814 25.4874905,14.7287901 L26.752346,13.4845538 L26.752346,13.4845538 C27.5397864,12.7099498 28.8060736,12.7203558 29.5806776,13.5077963 C29.5834594,13.5106241 29.5862327,13.5134603 29.5889976,13.5163046 L32.1179317,16.1179317" id="Path-2-Copy-2" transform="translate(22.022146, 14.095785) scale(-1, 1) rotate(-90.000000) translate(-22.022146, -14.095785) "></path>
        </g>
    </g>
</svg>